<svg width="700" height="1001" viewBox="0 0 700 1001" fill="none" xmlns="http://www.w3.org/2000/svg">
<path d="M663.888 884.518C641.488 932.707 610.032 972.055 573.757 1000.77H0V0.766567H666.343C678.132 45.6269 677.177 95.8866 657.054 134.078C645.767 155.506 629.671 171.336 616.441 190.649C598.745 216.456 586.766 248.794 581.12 283.122C580.812 284.935 580.534 286.767 580.268 288.6C578.167 303.115 577.197 317.93 577.388 332.705C577.696 358.751 581.635 384.717 589.456 408.652C608.196 466.099 645.546 508.351 669.724 561.917C713.336 658.591 708.47 788.638 663.888 884.518" fill="#FD94F2"/>
</svg>
